<svg width="190" height="37" viewBox="0 0 190 37" fill="none" xmlns="http://www.w3.org/2000/svg">
<g clip-path="url(#clip0)">
<rect width="190" height="37" fill="white"/>
<g clip-path="url(#clip1)">
<path d="M6.07 19.72V17.46C12.7536 16.5423 19.4937 16.0979 26.24 16.13C26.24 16.73 26.24 17.34 26.18 17.95C28.0976 17.099 30.1128 16.4877 32.18 16.13C30.8625 12.722 28.4617 9.84121 25.3471 7.93086C22.2324 6.02051 18.5764 5.1864 14.9414 5.55683C11.3064 5.92726 7.89379 7.48172 5.22852 9.98108C2.56325 12.4804 0.792968 15.7863 0.19 19.39L6.07 19.72Z" fill="#FDC305"/>
<path d="M27.24 23.23C26.08 24.51 25.85 24.43 25.85 26.68C25.85 27.59 25.85 31.58 25.85 35.86C28.1425 34.346 30.0245 32.2879 31.328 29.8694C32.6315 27.4509 33.3158 24.7474 33.32 22C33.3068 20.9591 33.1997 19.9216 33 18.9C30.9282 20.1295 28.9968 21.5814 27.24 23.23Z" fill="#FDC305"/>
<path d="M6.36 24.72C6.36 24.72 2.57 23.28 1.17 22.89C0.787067 22.7693 0.396097 22.6757 0 22.61C0.108395 25.4959 0.965588 28.3041 2.48739 30.7586C4.00919 33.2131 6.14326 35.2296 8.68 36.61L6.36 24.72Z" fill="#FDC305"/>
<path d="M26.29 16.12C26.3307 10.5986 25.862 5.08529 24.89 -0.349996C24.89 -0.349996 24.75 -1.64 24 -0.589996C23.4109 0.658143 23.0067 1.98539 22.8 3.35C18.5418 3.07577 14.2675 3.18958 10.03 3.69C9.24 1 7.85 -0.249996 7.18 4.29153e-06C6.51 0.250004 6.46 3.31 6.46 3.31L6.13 17.41C12.8113 16.506 19.548 16.0749 26.29 16.12Z" fill="#F06351"/>
<path d="M12.41 13C12.41 12.91 13.41 13.68 13.82 13.92C14.23 14.16 14.43 14.34 14.43 14.51C14.43 14.68 14.16 14.85 13.8 14.85C13.44 14.85 12.89 14.73 12.8 14.58H13.74H14.03C13.4207 14.1294 12.8757 13.5978 12.41 13Z" fill="black"/>
<path d="M19.89 13.11L18.8 14.44C18.8 14.5 18.63 14.79 18.98 14.74C19.3942 14.6783 19.8023 14.5812 20.2 14.45C20.31 14.45 20.27 14.26 20.09 14.28C19.91 14.3 19.4 14.33 19.09 14.39L19.93 13.13C19.93 13.13 20 13 19.89 13.11Z" fill="black"/>
<path d="M16.75 19.2C17.2135 18.9958 17.5967 18.6443 17.84 18.2C18.12 17.55 17.84 17.29 17.4 17.2C16.7979 17.0902 16.1765 17.2116 15.66 17.54C15.27 17.9 15.32 18.26 15.61 18.54C15.9613 18.8062 16.3442 19.0279 16.75 19.2Z" fill="black"/>
<path d="M16.35 20.45C16.2379 20.6785 16.0816 20.8825 15.89 21.05C15.6052 21.2791 15.2551 21.4122 14.89 21.43C14.3638 21.472 13.8406 21.3189 13.42 21C13.2222 20.8808 13.0436 20.7324 12.89 20.56C12.7895 20.4491 12.6669 20.3605 12.53 20.3C12.53 20.3 13.28 24.4 15.1 25.05C16.92 25.7 17.24 24.3 17.3 23.92C17.3601 22.7851 17.0742 21.6587 16.48 20.69C16.46 20.38 16.45 20.58 16.35 20.45Z" fill="#F06351"/>
<path d="M14.71 21.59C14.2453 21.5247 13.7989 21.3651 13.3982 21.1209C12.9975 20.8767 12.651 20.5531 12.38 20.17C12.3667 20.157 12.3561 20.1414 12.3489 20.1242C12.3417 20.1071 12.338 20.0886 12.338 20.07C12.338 20.0514 12.3417 20.0329 12.3489 20.0158C12.3561 19.9986 12.3667 19.983 12.38 19.97C12.393 19.9567 12.4086 19.9461 12.4258 19.9389C12.4429 19.9317 12.4614 19.928 12.48 19.928C12.4986 19.928 12.5171 19.9317 12.5342 19.9389C12.5514 19.9461 12.567 19.9567 12.58 19.97C13.0848 20.6642 13.843 21.1313 14.69 21.27C15.0217 21.245 15.3426 21.1413 15.6261 20.9674C15.9096 20.7934 16.1475 20.5544 16.32 20.27L16.46 20.08L16.56 20.29C16.56 20.29 16.93 21.05 17.56 21.09C18.19 21.13 18.61 20.68 19.17 19.81C19.183 19.7967 19.1986 19.7861 19.2158 19.7789C19.2329 19.7717 19.2514 19.768 19.27 19.768C19.2886 19.768 19.3071 19.7717 19.3242 19.7789C19.3414 19.7861 19.357 19.7967 19.37 19.81C19.4023 19.8306 19.4255 19.8629 19.4348 19.9C19.4441 19.9372 19.4388 19.9766 19.42 20.01C18.78 21.01 18.15 21.45 17.54 21.41C17.308 21.3763 17.0867 21.2903 16.8927 21.1587C16.6987 21.0271 16.5371 20.8531 16.42 20.65C16.2233 20.9245 15.9676 21.1514 15.6717 21.3141C15.3758 21.4767 15.0471 21.571 14.71 21.59Z" fill="black"/>
<path d="M26.24 17.92C24.4445 19.5437 22.7512 21.277 21.17 23.11C19.5986 24.9361 17.8238 26.5768 15.88 28C15.66 27.47 14.26 26.49 14.26 26.49C14.26 26.49 11.13 24.35 9.08 22.67C7.97414 21.7373 6.9287 20.7353 5.95 19.67L3.95 19.56C6.84018 23.7655 11.0702 26.8676 15.95 28.36C16.81 28.22 19.22 26.5 21.02 25.1C23.1389 23.2819 25.124 21.3134 26.96 19.21C27.4625 18.621 27.8493 17.9425 28.1 17.21C27 17.6 26.24 17.92 26.24 17.92Z" fill="#F06351"/>
</g>
<g clip-path="url(#clip2)">
<path d="M90.2645 27.5385C89.3696 26.2762 88.9253 24.7627 89 23.2308V16.8462C88.8916 15.2977 89.3081 13.7575 90.1855 12.4615C91.0548 11.4615 92.3983 11 94.374 11C96.3498 11 97.6143 11.4615 98.4045 12.3077C99.2626 13.3794 99.6846 14.7214 99.59 16.0769V17.6154H95.7175V15.8462C95.7488 15.3229 95.6681 14.799 95.4804 14.3077C95.3802 14.1094 95.2212 13.9448 95.024 13.8351C94.8269 13.7255 94.6005 13.6757 94.374 13.6923C93.8208 13.6923 93.4257 13.8462 93.2676 14.2308C93.0888 14.7773 93.0086 15.3499 93.0305 15.9231V24.1538C92.9888 24.71 93.0978 25.267 93.3466 25.7692C93.5047 26.1538 93.8999 26.3077 94.4531 26.3077C95.0063 26.3077 95.3224 26.1538 95.4804 25.7692C95.6601 25.2494 95.7405 24.7019 95.7175 24.1538V22.3077H99.59V23.8462C99.6704 25.2238 99.2508 26.5852 98.4045 27.6923C97.6143 28.6154 96.2707 29.0769 94.374 29.0769C92.4773 29 91.0548 28.5385 90.2645 27.5385Z" fill="#111111"/>
<path d="M104.253 11.2308H108.757L112.077 28.7692H108.441L107.809 25.0769H105.201L104.569 28.7692H100.854L104.253 11.2308ZM107.493 22.7692L106.545 15.9231L105.596 22.7692H107.493Z" fill="#111111"/>
<path d="M114.843 14.1539H112.156V11.2308H121.56V14.0769H118.873V28.7692H114.843V14.1539Z" fill="#111111"/>
<path d="M128.752 11.2308H135.707V13.0769H131.202V18.8462H134.837V20.6154H131.202V27.0769H135.707V28.8462H128.673V11.2308H128.752Z" fill="#111111"/>
<path d="M137.761 11.2308H139.5L144.637 22.8462V11.2308H146.692V28.7692H145.111L139.895 16.7692V28.7692H137.761V11.2308Z" fill="#111111"/>
<path d="M149.063 11.2308H156.017V13.0769H151.513V18.8462H155.148V20.6154H151.513V27.0769H156.017V28.8462H149.063V11.2308Z" fill="#111111"/>
<path d="M158.072 11.2308H161.707C163.137 11.1346 164.559 11.5143 165.738 12.3077C166.607 13 167.002 14.2308 167.002 15.8461C167.002 18.0769 166.291 19.4615 164.79 19.9231L167.318 28.6923H164.869L162.498 20.4615H160.522V28.6923H157.993V11.2308H158.072ZM161.549 18.7692C162.364 18.8346 163.176 18.6165 163.841 18.1538C164.315 17.7692 164.552 17 164.552 15.8461C164.574 15.273 164.494 14.7004 164.315 14.1538C164.137 13.7616 163.832 13.4373 163.446 13.2308C162.902 12.9893 162.304 12.8836 161.707 12.9231H160.601V18.6923H161.549V18.7692Z" fill="#111111"/>
<path d="M170.164 27.4615C169.342 26.1166 168.956 24.5616 169.057 23V17.1538C169.038 16.0391 169.17 14.9268 169.452 13.8461C169.717 13.0386 170.244 12.3367 170.954 11.8461C171.836 11.3377 172.854 11.0967 173.878 11.1538C175.538 11.1538 176.723 11.5384 177.434 12.3846C178.252 13.5019 178.644 14.8624 178.541 16.2308V16.8461H176.17V16.3077C176.173 15.6634 176.12 15.0201 176.012 14.3846C175.945 13.983 175.718 13.6235 175.379 13.3846C174.935 13.1008 174.408 12.9658 173.878 13C173.311 12.9646 172.75 13.1284 172.297 13.4615C172.111 13.614 171.959 13.8018 171.851 14.0134C171.742 14.2251 171.679 14.4561 171.665 14.6923C171.561 15.38 171.508 16.0741 171.507 16.7692V23.3077C171.449 24.3038 171.61 25.3005 171.981 26.2308C172.297 26.8461 172.93 27.0769 173.878 27.0769C174.252 27.1223 174.632 27.0589 174.97 26.8947C175.307 26.7304 175.587 26.4727 175.775 26.1538C176.192 25.1811 176.381 24.1299 176.328 23.0769V21.8461H174.036V20.0769H178.62V28.7692H177.039L176.802 26.7692C176.595 27.4395 176.163 28.0231 175.576 28.4273C174.989 28.8315 174.28 29.0331 173.562 29C172.909 29.0374 172.256 28.9164 171.663 28.6479C171.07 28.3793 170.555 27.9717 170.164 27.4615V27.4615Z" fill="#111111"/>
<path d="M183.678 22.6154L179.805 11.3077H182.176L184.942 19.7692L187.629 11.3077H190L186.128 22.6154V28.7692H183.757V22.6154H183.678Z" fill="#111111"/>
</g>
</g>
<defs>
<clipPath id="clip0">
<rect width="190" height="37" fill="white"/>
</clipPath>
<clipPath id="clip1">
<rect width="33.32" height="37.61" fill="white" transform="translate(0 -1)"/>
</clipPath>
<clipPath id="clip2">
<rect width="101" height="18" fill="white" transform="translate(89 11)"/>
</clipPath>
</defs>
</svg>
